PathFileType   4   (X/Y/Z)
DataRate	CameraRate	NumFrames	NumMarkers	Units	OrigDataRate	OrigDataStartFrame	OrigNumFrames
120.0	120.0	12	37	mm	120.0	122	194
Frame#	Time	midhip	hip_r	hip_l	knee_r	knee_l	ankle_r	ankle_l	midasis	asis_r	asis_l	psis_r	psis_l	epicondLat_r	epicondLat_l	epicondMed_r	epicondMed_l	malleolusLat_r	malleolusLat_l	malleolusMedv_r	malleolusMedv_l	neck	subclavicle_r	subclavicle_l	sternalnotch	xyphoidprocess	thighwand_r	thighwand_l	upperleg1_r	upperleg1_l	upperleg2_r	upperleg2_l	shankwand_r	shankwand_l	lowerleg1_r	lowerleg1_l	toe_r	toe_l
 	 	X1	Y1	Z1	X2	Y2	Z2	X3	Y3	Z3	X4	Y4	Z4	X5	Y5	Z5	X6	Y6	Z6	X7	Y7	Z7	X8	Y8	Z8	X9	Y9	Z9	X10	Y10	Z10	X11	Y11	Z11	X12	Y12	Z12	X13	Y13	Z13	X14	Y14	Z14	X15	Y15	Z15	X16	Y16	Z16	X17	Y17	Z17	X18	Y18	Z18	X19	Y19	Z19	X20	Y20	Z20	X21	Y21	Z21	X22	Y22	Z22	X23	Y23	Z23	X24	Y24	Z24	X25	Y25	Z25	X26	Y26	Z26	X27	Y27	Z27	X28	Y28	Z28	X29	Y29	Z29	X30	Y30	Z30	X31	Y31	Z31	X32	Y32	Z32	X33	Y33	Z33	X34	Y34	Z34	X35	Y35	Z35	X36	Y36	Z36	X37	Y37	Z37

	122	1.38333	680.871	772.205	-211.500	663.865	778.261	-132.123	659.018	774.101	-287.621	701.399	418.371	-171.719	663.359	402.786	-349.044	726.080	60.197	-193.080	389.766	171.326	-310.104	788.766	848.891	-215.786	792.674	852.246	-90.419	784.858	845.537	-341.153	543.444	921.339	-180.172	539.544	917.621	-234.227	704.690	410.899	-100.687	659.027	414.384	-419.464	681.952	425.805	-242.571	676.789	377.612	-263.366	719.182	57.469	-155.301	375.930	181.707	-345.615	726.263	73.461	-229.235	401.389	188.395	-270.304	577.421	1346.560	-204.639	702.219	1272.120	-176.157	698.383	1275.100	-258.536	682.776	1269.485	-229.023	730.192	1193.145	-232.635	845.923	564.799	-81.203	846.662	589.420	-333.851	807.285	586.924	-98.738	799.763	602.350	-338.215	784.541	514.105	-114.620	785.740	529.274	-343.879	798.450	209.353	-162.326	447.454	249.661	-423.814	751.299	212.747	-169.802	460.053	259.368	-378.931	835.257	45.666	-190.412	418.342	72.145	-312.539
	123	1.39167	684.625	771.850	-210.363	667.665	778.057	-131.002	662.796	773.664	-286.493	702.893	418.484	-171.079	674.205	402.540	-350.578	726.204	60.225	-192.985	398.407	173.835	-310.242	792.538	848.590	-214.788	796.468	852.137	-89.254	788.607	845.044	-340.322	547.242	921.047	-178.874	543.350	917.227	-232.975	706.218	410.894	-100.061	669.357	414.534	-420.898	684.031	424.518	-241.123	690.707	375.643	-264.327	719.242	57.463	-155.221	384.694	184.094	-345.836	726.255	73.503	-229.102	409.443	191.586	-270.357	581.732	1346.432	-203.877	706.452	1271.954	-175.272	702.470	1274.632	-257.820	686.788	1269.283	-228.263	734.220	1192.731	-231.581	848.465	564.103	-80.472	854.284	592.148	-334.938	809.360	586.878	-98.468	806.418	604.058	-338.901	786.506	513.672	-113.831	794.524	531.094	-344.861	799.092	208.970	-161.902	456.925	250.857	-424.439	751.672	212.485	-169.377	469.319	261.150	-379.216	835.331	45.515	-190.244	426.710	74.352	-313.340
	124	1.40000	688.290	771.555	-209.428	671.380	777.874	-130.038	666.516	773.308	-285.524	704.260	418.562	-170.519	685.038	402.479	-351.984	726.331	60.248	-192.913	407.464	175.936	-310.440	796.232	848.355	-213.900	800.164	852.045	-88.219	792.300	844.664	-339.581	551.015	920.778	-177.583	547.099	916.870	-231.746	707.673	410.875	-99.516	679.687	414.797	-422.211	686.036	423.837	-240.251	704.446	373.864	-266.042	719.278	57.455	-155.167	393.849	186.078	-346.105	726.444	73.514	-228.998	418.165	194.299	-270.542	585.285	1346.483	-203.226	710.834	1271.675	-174.624	706.461	1274.460	-257.534	690.811	1269.076	-227.577	738.397	1192.545	-231.341	850.953	563.419	-79.972	861.802	594.956	-335.990	811.717	586.378	-98.268	813.322	605.658	-339.560	788.708	513.362	-113.269	803.419	533.022	-346.015	799.672	208.631	-161.459	466.662	251.882	-425.071	752.138	212.285	-169.045	478.722	262.500	-379.795	835.405	45.367	-190.060	435.911	76.394	-314.238
	125	1.40833	691.930	771.332	-208.657	675.035	777.720	-129.215	670.191	773.052	-284.699	705.536	418.617	-170.029	695.826	402.588	-353.262	726.467	60.266	-192.867	416.957	177.582	-310.707	799.865	848.203	-213.108	803.784	851.980	-87.310	795.946	844.425	-338.905	554.758	920.547	-176.315	550.807	916.556	-230.540	709.074	410.849	-99.040	690.000	415.166	-423.406	686.572	425.136	-240.084	715.601	374.209	-267.454	719.294	57.443	-155.147	403.407	187.619	-346.427	726.605	73.727	-228.929	428.061	195.035	-270.883	589.016	1346.763	-202.686	714.888	1271.424	-174.110	710.666	1274.234	-257.035	694.810	1268.860	-226.963	742.410	1192.257	-230.799	853.395	562.756	-79.660	869.186	597.827	-336.964	814.160	585.698	-97.669	820.991	607.721	-340.440	790.622	513.096	-113.045	812.123	535.079	-347.106	800.213	208.320	-160.992	476.651	252.716	-425.705	752.806	212.319	-168.614	489.091	262.952	-379.952	835.486	45.225	-189.866	445.917	78.219	-315.205
	126	1.41667	695.564	771.193	-208.007	678.655	777.602	-128.504	673.830	772.906	-283.987	706.767	418.664	-169.596	706.543	402.850	-354.403	726.616	60.277	-192.853	426.886	178.737	-311.051	803.452	848.144	-212.394	807.358	851.946	-86.518	799.546	844.342	-338.271	558.467	920.367	-175.085	554.489	916.291	-229.361	710.451	410.828	-98.623	700.278	415.629	-424.472	686.610	425.399	-238.980	725.447	375.364	-268.233	719.296	57.426	-155.162	413.370	188.686	-346.808	726.227	74.304	-228.881	438.376	195.612	-271.321	593.269	1346.829	-201.920	718.787	1271.217	-173.604	714.475	1274.067	-256.231	698.777	1268.652	-226.397	746.010	1191.991	-230.221	855.799	562.121	-79.483	876.410	600.748	-337.820	816.141	585.317	-97.591	828.533	609.996	-341.165	792.035	512.838	-112.725	820.269	537.136	-347.939	800.739	208.024	-160.502	486.881	253.337	-426.335	753.451	212.455	-167.764	499.675	263.386	-380.343	835.581	45.091	-189.672	456.690	79.785	-316.215
	127	1.42500	699.202	771.138	-207.441	682.257	777.522	-127.865	677.431	772.871	-283.350	708.004	418.720	-169.208	717.170	403.241	-355.389	726.777	60.283	-192.869	437.240	179.379	-311.476	807.003	848.177	-211.738	810.911	851.944	-85.825	803.094	844.411	-337.651	562.137	920.244	-173.907	558.156	916.072	-228.214	711.837	410.819	-98.249	710.508	416.169	-425.394	688.495	424.500	-238.447	736.316	375.368	-269.087	719.289	57.405	-155.214	423.727	189.258	-347.254	726.102	74.605	-228.863	448.761	197.853	-271.903	597.950	1346.662	-201.068	722.782	1270.937	-173.233	718.072	1273.894	-255.724	702.741	1268.470	-225.859	749.455	1191.684	-230.022	858.168	561.516	-79.384	883.460	603.706	-338.526	818.342	585.095	-98.086	835.307	612.229	-341.741	793.927	512.559	-112.650	828.155	538.497	-348.737	801.275	207.731	-160.000	497.343	253.722	-426.959	753.975	212.291	-167.074	509.891	264.636	-381.967	835.690	44.964	-189.484	468.189	81.060	-317.257
	128	1.43333	702.808	771.161	-206.909	685.851	777.480	-127.262	680.989	772.937	-282.749	709.295	418.796	-168.852	727.698	403.737	-356.200	726.942	60.287	-192.913	447.999	179.497	-311.992	810.521	848.291	-211.115	814.458	851.970	-85.207	806.584	844.613	-337.023	565.761	920.182	-172.792	561.812	915.897	-227.108	713.259	410.829	-97.908	720.678	416.766	-426.151	691.006	424.669	-239.232	745.282	377.094	-269.082	719.276	57.385	-155.295	434.465	189.324	-347.776	726.604	74.513	-228.892	459.176	199.408	-272.451	602.258	1346.629	-200.503	726.648	1270.545	-172.899	721.907	1273.561	-255.205	706.691	1268.323	-225.347	753.001	1191.225	-229.661	860.507	560.936	-79.302	890.335	606.698	-339.056	820.637	584.764	-98.134	842.245	614.628	-342.811	796.238	512.319	-112.962	835.981	540.429	-349.270	801.839	207.430	-159.502	508.033	253.851	-427.575	754.593	211.934	-166.797	520.362	265.704	-383.095	835.814	44.842	-189.306	480.383	82.027	-318.329
	129	1.44167	706.401	771.245	-206.360	689.426	777.470	-126.663	684.497	773.086	-282.152	710.675	418.897	-168.521	738.125	404.314	-356.819	727.103	60.291	-192.978	459.144	179.090	-312.603	814.003	848.466	-210.498	817.992	852.015	-84.634	810.013	844.918	-336.362	569.335	920.179	-171.750	565.451	915.763	-226.057	714.737	410.857	-97.591	730.784	417.401	-426.727	692.737	425.602	-239.986	754.215	378.781	-269.491	719.258	57.368	-155.400	445.570	188.880	-348.382	727.504	74.339	-228.957	470.465	199.209	-273.116	605.953	1346.750	-199.931	730.521	1270.352	-172.356	726.242	1273.327	-254.438	710.606	1268.209	-224.882	757.129	1190.983	-228.814	862.819	560.374	-79.178	897.039	609.723	-339.393	822.777	584.243	-97.841	848.921	616.974	-343.485	798.395	512.205	-113.195	843.565	543.020	-349.688	802.442	207.113	-159.025	518.948	253.705	-428.179	755.572	211.702	-166.759	531.557	265.902	-383.846	835.948	44.723	-189.137	493.247	82.683	-319.442
	130	1.45000	709.951	771.367	-205.777	692.966	777.485	-126.044	687.951	773.295	-281.536	712.165	419.023	-168.210	748.450	404.952	-357.234	727.251	60.295	-193.056	470.656	178.160	-313.310	817.444	848.678	-209.861	821.501	852.067	-84.070	813.386	845.288	-335.651	572.855	920.226	-170.789	569.057	915.667	-225.077	716.277	410.901	-97.292	740.824	418.059	-427.108	694.481	425.772	-240.003	764.899	378.972	-270.508	719.236	57.358	-155.515	457.029	187.925	-349.076	728.620	74.168	-229.027	482.388	198.383	-273.970	609.639	1346.946	-199.466	734.533	1270.504	-171.549	730.601	1273.243	-254.008	714.493	1268.112	-224.471	761.452	1190.997	-227.827	865.110	559.824	-78.960	903.580	612.784	-339.519	825.483	583.759	-98.064	855.174	619.158	-343.583	800.390	511.973	-113.111	851.174	545.151	-350.081	803.090	206.773	-158.585	530.091	253.269	-428.767	757.070	211.531	-166.793	542.831	265.459	-385.001	836.085	44.606	-188.974	506.765	83.032	-320.617
	131	1.45833	713.447	771.509	-205.150	696.455	777.515	-125.390	691.352	773.535	-280.885	713.766	419.171	-167.914	758.675	405.638	-357.443	727.380	60.300	-193.136	482.523	176.716	-314.104	820.841	848.898	-209.181	824.966	852.115	-83.484	816.716	845.681	-334.878	576.320	920.315	-169.919	572.613	915.604	-224.185	717.870	410.954	-97.006	750.802	418.732	-427.292	696.581	426.444	-240.323	775.884	379.696	-269.684	719.210	57.354	-155.628	468.833	186.463	-349.851	728.976	73.882	-229.113	493.937	196.893	-274.683	613.538	1347.272	-199.246	738.401	1270.478	-171.181	734.338	1273.367	-253.862	718.342	1268.033	-224.083	765.067	1191.012	-227.746	867.383	559.276	-78.611	909.962	615.884	-339.418	828.518	583.549	-98.009	861.566	621.262	-343.414	802.522	511.701	-113.010	858.920	547.380	-349.749	803.779	206.408	-158.187	541.464	252.534	-429.337	756.793	211.182	-166.890	553.662	264.407	-385.572	836.220	44.493	-188.811	520.923	83.090	-321.877
	132	1.46667	716.853	771.650	-204.483	699.877	777.550	-124.692	694.705	773.779	-280.190	715.460	419.336	-167.625	768.798	406.364	-357.450	727.491	60.305	-193.205	494.737	174.770	-314.967	824.195	849.098	-208.443	828.373	852.144	-82.848	820.018	846.053	-334.038	579.731	920.431	-169.146	576.101	915.574	-223.396	719.496	411.014	-96.726	760.724	419.421	-427.283	699.633	427.694	-241.779	786.340	381.022	-267.773	719.181	57.357	-155.728	480.977	184.500	-350.691	729.049	73.841	-229.180	505.766	194.353	-275.408	617.346	1347.424	-198.853	742.051	1270.188	-171.138	737.802	1273.413	-253.678	722.116	1267.987	-223.709	768.367	1190.874	-228.023	869.640	558.729	-78.107	916.178	619.022	-339.066	830.844	583.346	-97.323	867.780	623.490	-342.903	805.064	511.760	-113.178	866.290	549.820	-348.908	804.503	206.016	-157.824	553.073	251.494	-429.881	757.069	210.840	-166.697	564.825	262.824	-385.707	836.344	44.383	-188.637	535.703	82.877	-323.243
	133	1.47500	720.202	771.769	-203.754	703.219	777.579	-123.951	698.014	773.998	-279.452	717.213	419.516	-167.335	778.813	407.129	-357.264	727.586	60.309	-193.253	507.292	172.339	-315.867	827.508	849.250	-207.640	831.708	852.140	-82.149	823.308	846.360	-333.132	583.091	920.563	-168.478	579.513	915.575	-222.718	721.123	411.079	-96.442	770.594	420.129	-427.091	702.637	428.220	-242.334	796.616	382.050	-266.755	719.152	57.364	-155.804	493.456	182.046	-351.568	728.998	74.024	-229.229	518.363	191.315	-276.331	621.093	1347.268	-198.311	745.909	1270.039	-170.686	741.334	1273.188	-253.559	725.808	1267.966	-223.336	771.996	1190.667	-227.755	871.878	558.184	-77.440	922.212	622.188	-338.433	833.012	582.949	-96.580	873.691	625.821	-342.083	807.655	511.954	-112.859	873.368	552.261	-348.146	805.250	205.602	-157.484	564.916	250.148	-430.393	757.689	210.700	-166.362	576.820	261.229	-386.073	836.455	44.279	-188.443	551.079	82.418	-324.728
